<svg id="Capa_1" enable-background="new 0 0 512 512" height="512" viewBox="0 0 512 512" width="512" xmlns="http://www.w3.org/2000/svg"><g><path d="m462.3 24.067c0-13.271-10.797-24.067-24.068-24.067l-314.765.001c-40.675 0-73.767 33.091-73.767 73.766v364.466c0 40.675 33.092 73.767 73.767 73.767h265.065.001 33.133 16.565c13.271 0 24.067-10.796 24.067-24.067v-463.866zm-264.312 472.933c-.267.008-.422-.144-.525-.246v.001l-13.136-13.136c-6.153-6.154-16.167-6.153-22.321 0l-13.135 13.135c-.101.103-.256.253-.523.246h-.02c-.09-.005-.193-.027-.311-.076-.483-.2-.483-.528-.483-.724v-50.466h51.267v50.466c0 .196 0 .523-.483.724-.118.049-.22.071-.31.076zm-21.492 0h-6.658l2.775-2.775c.306-.306.803-.305 1.108 0zm237.671-132.534h-18.133v-349.466h18.133zm15 48.134h9.066c3.206 0 6.267-.63 9.067-1.773v19.906h-18.133zm18.133-24.058c-.005 4.995-4.07 9.058-9.067 9.058h-9.066v-18.133h9.065c3.207 0 6.267-.635 9.067-1.779v10.854zm-233.499 57.191h167.233v18.133h-167.233zm167.232-15h-282.078c3.215-10.487 12.986-18.134 24.512-18.134l257.566.001zm-248.499 15v18.132h-9.067c-11.525 0-21.296-7.647-24.511-18.132zm81.267 50.467v-17.333h167.233v18.133h-167.263c.013-.266.03-.532.03-.8zm182.232.8v-117.533h18.133v117.533zm33.134-51.267h18.133v9.075c-.005 4.995-4.07 9.058-9.067 9.058h-9.066zm18.133-421.666v331.332c0 5-4.067 9.068-9.067 9.068h-9.065v-349.467h9.065c4.999 0 9.067 4.068 9.067 9.067zm-382.6 49.7c0-29.862 22.393-54.574 51.266-58.271v349.35c-20.881 2.118-39.208 12.987-51.267 28.865v-319.944zm0 364.466c0-32.402 26.359-58.762 58.76-58.766h.006 67.834c4.142 0 7.5-3.358 7.5-7.5s-3.358-7.5-7.5-7.5h-60.333v-349.467h250.067v349.467h-159.733c-4.142 0-7.5 3.358-7.5 7.5s3.358 7.5 7.5 7.5h159.733v18.133l-257.566-.001c-22.405 0-40.633 18.228-40.633 40.633v.001.001c.001 22.405 18.229 40.632 40.633 40.632h9.067v17.334c0 .269.016.534.03.8h-9.097c-32.405 0-58.768-26.363-58.768-58.767zm373.532 58.767h-9.065v-18.134h9.066c3.207 0 6.267-.635 9.067-1.779v10.845c0 5.001-4.068 9.068-9.068 9.068z"/><path d="m329.767 98.9v-33.7c0-8.547-6.953-15.5-15.5-15.5h-77.967c-4.142 0-7.5 3.358-7.5 7.5s3.358 7.5 7.5 7.5h77.967c.276 0 .5.224.5.5v33.7c0 .276-.224.5-.5.5h-116.533c-.276 0-.5-.224-.5-.5v-33.7c0-.276.224-.5.5-.5h8.567c4.142 0 7.5-3.358 7.5-7.5s-3.358-7.5-7.5-7.5h-8.567c-8.547 0-15.5 6.953-15.5 15.5v33.7c0 8.547 6.953 15.5 15.5 15.5h116.533c8.547 0 15.5-6.953 15.5-15.5z"/></g></svg>